<svg width="22" height="22" viewBox="0 0 22 22" fill="none" xmlns="http://www.w3.org/2000/svg">
<path d="M5.3125 1.02539C5.65524 0.931977 6.00839 1.1029 6.15137 1.42285L6.16211 1.44727L7.88086 5.57129V5.57227C8.00259 5.86419 7.91938 6.20072 7.67285 6.40234L5.55469 8.13379L4.94922 8.62891L5.2832 9.33594C6.81289 12.5697 9.43029 15.1871 12.6641 16.7168L13.3701 17.0508L13.8652 16.4463L15.6016 14.3281L15.6045 14.3242C15.7753 14.1134 16.0557 14.0206 16.3203 14.083L16.4326 14.1191L20.5576 15.8379L20.5596 15.8389C20.8914 15.9763 21.0698 16.3382 20.9746 16.6875L20.9736 16.6885L19.9434 20.4668C19.8557 20.7839 19.5691 21 19.249 21C9.17141 20.9999 1.00007 12.8286 1 2.75098C1 2.43095 1.21613 2.14426 1.5332 2.05664L1.53223 2.05566L5.31152 1.02637L5.3125 1.02539Z" stroke="#FCBA6A" stroke-width="2"/>
</svg>
