<svg width="28" height="22" viewBox="0 0 28 22" fill="none" xmlns="http://www.w3.org/2000/svg">
<path d="M22.6875 9.25005C24.0344 9.25006 25.125 10.3406 25.125 11.6875V13.75C25.125 14.3023 25.5727 14.75 26.125 14.75C26.3332 14.7501 26.5 14.9168 26.5 15.125V20.625C26.5 20.8333 26.3332 21 26.125 21H19.25C19.0418 21 18.875 20.8333 18.875 20.625V15.125C18.875 14.9168 19.0417 14.75 19.25 14.75C19.8023 14.75 20.25 14.3023 20.25 13.75V11.6875C20.25 10.3406 21.3406 9.25005 22.6875 9.25005ZM22.6875 9.31255C21.3747 9.31255 20.3125 10.3747 20.3125 11.6875V13.75C20.3125 14.3023 20.7602 14.75 21.3125 14.75H24.0625C24.6148 14.75 25.0625 14.3023 25.0625 13.75V11.6875C25.0625 10.3747 24.0003 9.31256 22.6875 9.31255Z" stroke="#FCBA6A" stroke-width="2" stroke-linejoin="round"/>
<path d="M7.66113 14.0625H11.5889C13.0498 14.0626 14.4006 14.5347 15.5 15.333V20.625C15.5 20.7518 15.5081 20.8768 15.5205 21H1.27637C1.12397 21 1 20.876 1 20.7236C1.00006 17.0436 3.98113 14.0626 7.66113 14.0625ZM9.625 1C10.8185 1.00001 11.9627 1.47446 12.8066 2.31836C13.6505 3.16227 14.125 4.30654 14.125 5.5C14.125 6.69346 13.6505 7.83774 12.8066 8.68164C11.9627 9.52554 10.8185 9.99999 9.625 10C8.43155 10 7.28727 9.52553 6.44336 8.68164C5.59945 7.83774 5.12501 6.69346 5.125 5.5C5.125 4.30653 5.59945 3.16227 6.44336 2.31836C7.28727 1.47445 8.43154 1 9.625 1Z" stroke="black" stroke-width="2" stroke-linejoin="round"/>
</svg>
